<?xml version="1.0" encoding="UTF-8" standalone="no"?>
<!-- Generator: Adobe Illustrator 18.0.0, SVG Export Plug-In . SVG Version: 6.00 Build 0)  -->

<svg
   xmlns:dc="http://purl.org/dc/elements/1.1/"
   xmlns:cc="http://creativecommons.org/ns#"
   xmlns:rdf="http://www.w3.org/1999/02/22-rdf-syntax-ns#"
   xmlns:svg="http://www.w3.org/2000/svg"
   xmlns="http://www.w3.org/2000/svg"
   xmlns:sodipodi="http://sodipodi.sourceforge.net/DTD/sodipodi-0.dtd"
   xmlns:inkscape="http://www.inkscape.org/namespaces/inkscape"
   version="1.1"
   id="Capa_1"
   x="0px"
   y="0px"
   viewBox="0 0 128 128"
   xml:space="preserve"
   inkscape:version="0.92.3 (2405546, 2018-03-11)"
   sodipodi:docname="icon-github.svg"
   width="128"
   height="128"><metadata
     id="metadata43"><rdf:RDF><cc:Work
         rdf:about=""><dc:format>image/svg+xml</dc:format><dc:type
           rdf:resource="http://purl.org/dc/dcmitype/StillImage" /><dc:title></dc:title></cc:Work></rdf:RDF></metadata><defs
     id="defs41" /><sodipodi:namedview
     pagecolor="#ffffff"
     bordercolor="#666666"
     borderopacity="1"
     objecttolerance="10"
     gridtolerance="10"
     guidetolerance="10"
     inkscape:pageopacity="0"
     inkscape:pageshadow="2"
     inkscape:window-width="1920"
     inkscape:window-height="1017"
     id="namedview39"
     showgrid="false"
     inkscape:zoom="1"
     inkscape:cx="-108.82138"
     inkscape:cy="-93.641232"
     inkscape:window-x="-8"
     inkscape:window-y="-8"
     inkscape:window-maximized="1"
     inkscape:current-layer="Capa_1" /><g
     id="g9"
     transform="translate(0,15.804001)" /><g
     id="g11"
     transform="translate(0,15.804001)" /><g
     id="g13"
     transform="translate(0,15.804001)" /><g
     id="g15"
     transform="translate(0,15.804001)" /><g
     id="g17"
     transform="translate(0,15.804001)" /><g
     id="g19"
     transform="translate(0,15.804001)" /><g
     id="g21"
     transform="translate(0,15.804001)" /><g
     id="g23"
     transform="translate(0,15.804001)" /><g
     id="g25"
     transform="translate(0,15.804001)" /><g
     id="g27"
     transform="translate(0,15.804001)" /><g
     id="g29"
     transform="translate(0,15.804001)" /><g
     id="g31"
     transform="translate(0,15.804001)" /><g
     id="g33"
     transform="translate(0,15.804001)" /><g
     id="g35"
     transform="translate(0,15.804001)" /><g
     id="g37"
     transform="translate(0,15.804001)" /><g
     id="g4176"
     transform="translate(-364.08306,-153.38659)" /><g
     id="g4178"
     transform="translate(-364.08306,-153.38659)" /><g
     id="g4180"
     transform="translate(-364.08306,-153.38659)" /><g
     id="g4182"
     transform="translate(-364.08306,-153.38659)" /><g
     id="g4184"
     transform="translate(-364.08306,-153.38659)" /><g
     id="g4186"
     transform="translate(-364.08306,-153.38659)" /><g
     id="g4188"
     transform="translate(-364.08306,-153.38659)" /><g
     id="g4190"
     transform="translate(-364.08306,-153.38659)" /><g
     id="g4192"
     transform="translate(-364.08306,-153.38659)" /><g
     id="g4194"
     transform="translate(-364.08306,-153.38659)" /><g
     id="g4196"
     transform="translate(-364.08306,-153.38659)" /><g
     id="g4198"
     transform="translate(-364.08306,-153.38659)" /><g
     id="g4200"
     transform="translate(-364.08306,-153.38659)" /><g
     id="g4202"
     transform="translate(-364.08306,-153.38659)" /><g
     id="g4204"
     transform="translate(-364.08306,-153.38659)" /><path
     style="opacity:1;fill:#4078c0;fill-opacity:1;stroke:none;stroke-width:11.96220493;stroke-linecap:butt;stroke-linejoin:round;stroke-miterlimit:4;stroke-dasharray:none;stroke-dashoffset:0;stroke-opacity:1;paint-order:stroke markers fill"
     d="M 128,64 A 63.999999,63.999999 0 0 1 63.999999,128.00001 63.999999,63.999999 0 0 1 0,64 63.999999,63.999999 0 0 1 63.999999,1.1045717e-6 63.999999,63.999999 0 0 1 128,64 Z"
     id="path842"
     inkscape:connector-curvature="0" /><path
     style="fill:#ffffff;fill-opacity:1"
     d="M 95.351562 27.109375 C 90.537013 27.020455 81.978984 31.606011 79.414062 33.679688 C 73.445441 31.362192 58.836608 30.549556 49.958984 33.679688 C 43.665304 29.253463 36.500926 26.520469 32.595703 27.283203 C 28.990357 35.273112 31.309546 42.82453 32.013672 43.724609 C 27.370446 47.967703 20.893392 53.190291 22.652344 64.130859 C 25.473897 80.17294 36.759774 88.82639 54.931641 90.943359 C 51.055721 91.735389 50.399272 94.626429 50.074219 95.880859 C 37.870515 100.91553 34.384201 92.771937 32.841797 90.650391 C 27.719685 84.310932 23.123237 86.150197 22.839844 86.25 C 22.564699 86.34981 22.355465 86.749578 22.384766 86.941406 C 22.642975 88.308463 25.431012 89.696427 25.568359 89.808594 C 29.348593 92.62603 30.748792 97.715636 31.611328 99.166016 C 37.033769 108.08118 49.636948 104.3839 49.757812 104.45898 L 49.326172 126.22461 A 63.999999 63.999999 0 0 0 64 128 A 63.999999 63.999999 0 0 0 81.861328 125.42188 L 81.730469 101.19531 C 81.563823 99.186394 81.347177 94.075855 76.496094 90.8125 C 95.755747 89.199591 104.92127 78.554855 105.58008 64.488281 C 106.13038 56.477771 102.94451 49.434781 97.289062 43.75 C 97.576572 37.669212 97.106282 30.462135 96.714844 27.294922 C 96.307698 27.177708 95.84962 27.118573 95.351562 27.109375 z "
     id="path4268" /></svg>