<?xml version="1.0" encoding="UTF-8" standalone="no"?>
<!-- Generator: Adobe Illustrator 18.0.0, SVG Export Plug-In . SVG Version: 6.00 Build 0)  -->

<svg
   xmlns:dc="http://purl.org/dc/elements/1.1/"
   xmlns:cc="http://creativecommons.org/ns#"
   xmlns:rdf="http://www.w3.org/1999/02/22-rdf-syntax-ns#"
   xmlns:svg="http://www.w3.org/2000/svg"
   xmlns="http://www.w3.org/2000/svg"
   xmlns:sodipodi="http://sodipodi.sourceforge.net/DTD/sodipodi-0.dtd"
   xmlns:inkscape="http://www.inkscape.org/namespaces/inkscape"
   version="1.1"
   id="Capa_1"
   x="0px"
   y="0px"
   viewBox="0 0 128 128"
   xml:space="preserve"
   inkscape:version="0.92.3 (2405546, 2018-03-11)"
   sodipodi:docname="icon-wordpress.org.svg"
   width="128"
   height="128"><metadata
     id="metadata43"><rdf:RDF><cc:Work
         rdf:about=""><dc:format>image/svg+xml</dc:format><dc:type
           rdf:resource="http://purl.org/dc/dcmitype/StillImage" /><dc:title></dc:title></cc:Work></rdf:RDF></metadata><defs
     id="defs41" /><sodipodi:namedview
     pagecolor="#ffffff"
     bordercolor="#666666"
     borderopacity="1"
     objecttolerance="10"
     gridtolerance="10"
     guidetolerance="10"
     inkscape:pageopacity="0"
     inkscape:pageshadow="2"
     inkscape:window-width="1920"
     inkscape:window-height="1017"
     id="namedview39"
     showgrid="false"
     inkscape:zoom="1.4363107"
     inkscape:cx="-154.33698"
     inkscape:cy="37.350694"
     inkscape:window-x="-8"
     inkscape:window-y="-8"
     inkscape:window-maximized="1"
     inkscape:current-layer="Capa_1" /><g
     id="g9"
     transform="translate(0,15.804001)" /><g
     id="g11"
     transform="translate(0,15.804001)" /><g
     id="g13"
     transform="translate(0,15.804001)" /><g
     id="g15"
     transform="translate(0,15.804001)" /><g
     id="g17"
     transform="translate(0,15.804001)" /><g
     id="g19"
     transform="translate(0,15.804001)" /><g
     id="g21"
     transform="translate(0,15.804001)" /><g
     id="g23"
     transform="translate(0,15.804001)" /><g
     id="g25"
     transform="translate(0,15.804001)" /><g
     id="g27"
     transform="translate(0,15.804001)" /><g
     id="g29"
     transform="translate(0,15.804001)" /><g
     id="g31"
     transform="translate(0,15.804001)" /><g
     id="g33"
     transform="translate(0,15.804001)" /><g
     id="g35"
     transform="translate(0,15.804001)" /><g
     id="g37"
     transform="translate(0,15.804001)" /><g
     id="g4176"
     transform="translate(-364.08306,-153.38659)" /><g
     id="g4178"
     transform="translate(-364.08306,-153.38659)" /><g
     id="g4180"
     transform="translate(-364.08306,-153.38659)" /><g
     id="g4182"
     transform="translate(-364.08306,-153.38659)" /><g
     id="g4184"
     transform="translate(-364.08306,-153.38659)" /><g
     id="g4186"
     transform="translate(-364.08306,-153.38659)" /><g
     id="g4188"
     transform="translate(-364.08306,-153.38659)" /><g
     id="g4190"
     transform="translate(-364.08306,-153.38659)" /><g
     id="g4192"
     transform="translate(-364.08306,-153.38659)" /><g
     id="g4194"
     transform="translate(-364.08306,-153.38659)" /><g
     id="g4196"
     transform="translate(-364.08306,-153.38659)" /><g
     id="g4198"
     transform="translate(-364.08306,-153.38659)" /><g
     id="g4200"
     transform="translate(-364.08306,-153.38659)" /><g
     id="g4202"
     transform="translate(-364.08306,-153.38659)" /><g
     id="g4204"
     transform="translate(-364.08306,-153.38659)" /><path
     style="opacity:1;fill:#21759b;fill-opacity:1;stroke:none;stroke-width:11.96220493;stroke-linecap:butt;stroke-linejoin:round;stroke-miterlimit:4;stroke-dasharray:none;stroke-dashoffset:0;stroke-opacity:1;paint-order:stroke markers fill"
     d="M 128,64 A 64.000002,64 0 0 1 64.000002,128 64.000002,64 0 0 1 0,64 64.000002,64 0 0 1 64.000002,-3.6080069e-7 64.000002,64 0 0 1 128,64 Z"
     id="path842"
     inkscape:connector-curvature="0" /><path
     style="fill:#ffffff;fill-opacity:1;stroke:none;stroke-width:3;stroke-miterlimit:4;stroke-dasharray:none;stroke-opacity:1"
     d="m 64,24 c -22.05599,0 -40,17.94401 -40,40 0,22.05599 17.94401,40 40,40 22.05618,0 40,-17.94401 40,-40 C 104,41.94401 86.05599,24 64,24 Z m -3.7e-4,3.99099 c 9.56823,0 18.264,3.73321 24.71274,9.82087 -0.19592,-0.0183 -0.39604,-0.0293 -0.60196,-0.0293 -3.80587,0 -6.8911,3.08503 -6.8911,6.8911 0,3.80606 11.11824,9.1185 5.00789,26.17273 L 81.56929,84.1577 68.61097,47.5272 l 5.20053,0 0,-3.49042 -22.20804,0 0,3.49042 5.01502,0 5.62449,15.89974 -7.25423,20.73076 -12.95869,-36.6305 4.75291,0 0,-3.49042 -12.75404,0 c 6.45586,-9.6732 17.46834,-16.04581 29.97071,-16.04581 z m 31.33871,18.26474 c 2.97183,5.23747 4.6703,11.29208 4.6703,17.74389 0,13.76863 -7.72881,25.73071 -19.08337,31.78896 l 12.39054,-34.7116 c 0.46143,-1.12917 0.86739,-2.2784 1.19001,-3.4018 l 0.5445,-1.55577 -0.14307,0 c 0.7904,-3.42192 0.94617,-6.83091 0.43109,-9.86368 z m -64.47015,3.62035 16.2501,45.93541 C 35.73989,89.76055 27.99136,77.78612 27.99136,64 c 0,-5.01349 1.02571,-9.78721 2.87683,-14.12392 z m 33.2193,18.7653 10.53324,29.77432 c -3.35732,1.03496 -6.92387,1.59294 -10.62073,1.59294 -3.87586,0 -7.60727,-0.61483 -11.10552,-1.74803 L 64.08749,68.64138 Z"
     id="path4565"
     inkscape:connector-curvature="0" /></svg>