<?xml version="1.0" encoding="UTF-8" standalone="no"?>
<!-- Generator: Adobe Illustrator 18.0.0, SVG Export Plug-In . SVG Version: 6.00 Build 0)  -->

<svg
   xmlns:dc="http://purl.org/dc/elements/1.1/"
   xmlns:cc="http://creativecommons.org/ns#"
   xmlns:rdf="http://www.w3.org/1999/02/22-rdf-syntax-ns#"
   xmlns:svg="http://www.w3.org/2000/svg"
   xmlns="http://www.w3.org/2000/svg"
   xmlns:sodipodi="http://sodipodi.sourceforge.net/DTD/sodipodi-0.dtd"
   xmlns:inkscape="http://www.inkscape.org/namespaces/inkscape"
   version="1.1"
   id="Capa_1"
   x="0px"
   y="0px"
   viewBox="0 0 128 128"
   xml:space="preserve"
   inkscape:version="0.92.3 (2405546, 2018-03-11)"
   sodipodi:docname="icon-instagram.svg"
   width="128"
   height="128"><metadata
     id="metadata43"><rdf:RDF><cc:Work
         rdf:about=""><dc:format>image/svg+xml</dc:format><dc:type
           rdf:resource="http://purl.org/dc/dcmitype/StillImage" /><dc:title></dc:title></cc:Work></rdf:RDF></metadata><defs
     id="defs41" /><sodipodi:namedview
     pagecolor="#ffffff"
     bordercolor="#666666"
     borderopacity="1"
     objecttolerance="10"
     gridtolerance="10"
     guidetolerance="10"
     inkscape:pageopacity="0"
     inkscape:pageshadow="2"
     inkscape:window-width="1920"
     inkscape:window-height="1017"
     id="namedview39"
     showgrid="false"
     inkscape:zoom="2.03125"
     inkscape:cx="-22.976848"
     inkscape:cy="67.095855"
     inkscape:window-x="-8"
     inkscape:window-y="-8"
     inkscape:window-maximized="1"
     inkscape:current-layer="Capa_1" /><g
     id="g9"
     transform="translate(0,15.804001)" /><g
     id="g11"
     transform="translate(0,15.804001)" /><g
     id="g13"
     transform="translate(0,15.804001)" /><g
     id="g15"
     transform="translate(0,15.804001)" /><g
     id="g17"
     transform="translate(0,15.804001)" /><g
     id="g19"
     transform="translate(0,15.804001)" /><g
     id="g21"
     transform="translate(0,15.804001)" /><g
     id="g23"
     transform="translate(0,15.804001)" /><g
     id="g25"
     transform="translate(0,15.804001)" /><g
     id="g27"
     transform="translate(0,15.804001)" /><g
     id="g29"
     transform="translate(0,15.804001)" /><g
     id="g31"
     transform="translate(0,15.804001)" /><g
     id="g33"
     transform="translate(0,15.804001)" /><g
     id="g35"
     transform="translate(0,15.804001)" /><g
     id="g37"
     transform="translate(0,15.804001)" /><g
     id="g4176"
     transform="translate(-364.08306,-153.38659)" /><g
     id="g4178"
     transform="translate(-364.08306,-153.38659)" /><g
     id="g4180"
     transform="translate(-364.08306,-153.38659)" /><g
     id="g4182"
     transform="translate(-364.08306,-153.38659)" /><g
     id="g4184"
     transform="translate(-364.08306,-153.38659)" /><g
     id="g4186"
     transform="translate(-364.08306,-153.38659)" /><g
     id="g4188"
     transform="translate(-364.08306,-153.38659)" /><g
     id="g4190"
     transform="translate(-364.08306,-153.38659)" /><g
     id="g4192"
     transform="translate(-364.08306,-153.38659)" /><g
     id="g4194"
     transform="translate(-364.08306,-153.38659)" /><g
     id="g4196"
     transform="translate(-364.08306,-153.38659)" /><g
     id="g4198"
     transform="translate(-364.08306,-153.38659)" /><g
     id="g4200"
     transform="translate(-364.08306,-153.38659)" /><g
     id="g4202"
     transform="translate(-364.08306,-153.38659)" /><g
     id="g4204"
     transform="translate(-364.08306,-153.38659)" /><path
     style="opacity:1;fill:#833ab4;fill-opacity:1;stroke:none;stroke-width:11.96220493;stroke-linecap:butt;stroke-linejoin:round;stroke-miterlimit:4;stroke-dasharray:none;stroke-dashoffset:0;stroke-opacity:1;paint-order:stroke markers fill"
     d="M 128,64.000005 A 64.000002,64.000004 0 0 1 64.000002,128.00001 64.000002,64.000004 0 0 1 0,64.000005 64.000002,64.000004 0 0 1 64.000002,6.564104e-7 64.000002,64.000004 0 0 1 128,64.000005 Z"
     id="path842"
     inkscape:connector-curvature="0" /><path
     d="M 46.076172 24 C 33.903123 24 24 33.903123 24 46.076172 L 24 81.923828 C 24 94.09735 33.903123 104 46.076172 104 L 81.921875 104 C 94.09587 104 104 94.096877 104 81.923828 L 104 46.076172 C 104.00047 33.903123 94.09587 24 81.921875 24 L 46.076172 24 z M 46.076172 31.097656 L 81.921875 31.097656 C 90.181567 31.097656 96.902344 37.816953 96.902344 46.076172 L 96.902344 81.923828 C 96.902344 90.18352 90.18352 96.902344 81.923828 96.902344 L 46.076172 96.902344 C 37.816953 96.902817 31.097656 90.18352 31.097656 81.923828 L 31.097656 46.076172 C 31.097656 37.816953 37.816953 31.097656 46.076172 31.097656 z M 85.478516 37.369141 C 84.11097 37.369141 82.766581 37.92252 81.800781 38.892578 C 80.83025 39.857905 80.273438 41.201941 80.273438 42.574219 C 80.273438 43.942238 80.830723 45.2858 81.800781 46.255859 C 82.766107 47.221185 84.11097 47.779297 85.478516 47.779297 C 86.850793 47.779297 88.190098 47.221185 89.160156 46.255859 C 90.130215 45.2858 90.683594 43.941765 90.683594 42.574219 C 90.683594 41.201941 90.130215 39.857905 89.160156 38.892578 C 88.19483 37.92252 86.850793 37.369141 85.478516 37.369141 z M 64 43.386719 C 52.633282 43.386719 43.386719 52.633283 43.386719 64 C 43.386719 75.366245 52.633282 84.613281 64 84.613281 C 75.366717 84.613281 84.613281 75.366245 84.613281 64 C 84.613281 52.633283 75.366717 43.386719 64 43.386719 z M 64 50.484375 C 71.452887 50.484375 77.515625 56.547113 77.515625 64 C 77.515625 71.452414 71.452414 77.515625 64 77.515625 C 56.547586 77.515625 50.484375 71.452414 50.484375 64 C 50.484375 56.547113 56.547113 50.484375 64 50.484375 z "
     id="path4386"
     style="fill:#ffffff;fill-opacity:1" /></svg>