<?xml version="1.0" encoding="UTF-8" standalone="no"?>
<!-- Generator: Adobe Illustrator 18.0.0, SVG Export Plug-In . SVG Version: 6.00 Build 0)  -->

<svg
   xmlns:dc="http://purl.org/dc/elements/1.1/"
   xmlns:cc="http://creativecommons.org/ns#"
   xmlns:rdf="http://www.w3.org/1999/02/22-rdf-syntax-ns#"
   xmlns:svg="http://www.w3.org/2000/svg"
   xmlns="http://www.w3.org/2000/svg"
   xmlns:sodipodi="http://sodipodi.sourceforge.net/DTD/sodipodi-0.dtd"
   xmlns:inkscape="http://www.inkscape.org/namespaces/inkscape"
   version="1.1"
   id="Capa_1"
   x="0px"
   y="0px"
   viewBox="0 0 128 128"
   xml:space="preserve"
   inkscape:version="0.92.3 (2405546, 2018-03-11)"
   sodipodi:docname="icon-twitch.svg"
   width="128"
   height="128"><metadata
     id="metadata43"><rdf:RDF><cc:Work
         rdf:about=""><dc:format>image/svg+xml</dc:format><dc:type
           rdf:resource="http://purl.org/dc/dcmitype/StillImage" /><dc:title></dc:title></cc:Work></rdf:RDF></metadata><defs
     id="defs41">
    
    
  
      
    </defs><sodipodi:namedview
     pagecolor="#ffffff"
     bordercolor="#666666"
     borderopacity="1"
     objecttolerance="10"
     gridtolerance="10"
     guidetolerance="10"
     inkscape:pageopacity="0"
     inkscape:pageshadow="2"
     inkscape:window-width="1920"
     inkscape:window-height="1017"
     id="namedview39"
     showgrid="false"
     inkscape:zoom="1.4873721"
     inkscape:cx="-260.55648"
     inkscape:cy="-9.6098356"
     inkscape:window-x="-8"
     inkscape:window-y="-8"
     inkscape:window-maximized="1"
     inkscape:current-layer="Capa_1" /><g
     id="g9"
     transform="translate(0,15.804001)" /><g
     id="g11"
     transform="translate(0,15.804001)" /><g
     id="g13"
     transform="translate(0,15.804001)" /><g
     id="g15"
     transform="translate(0,15.804001)" /><g
     id="g17"
     transform="translate(0,15.804001)" /><g
     id="g19"
     transform="translate(0,15.804001)" /><g
     id="g21"
     transform="translate(0,15.804001)" /><g
     id="g23"
     transform="translate(0,15.804001)" /><g
     id="g25"
     transform="translate(0,15.804001)" /><g
     id="g27"
     transform="translate(0,15.804001)" /><g
     id="g29"
     transform="translate(0,15.804001)" /><g
     id="g31"
     transform="translate(0,15.804001)" /><g
     id="g33"
     transform="translate(0,15.804001)" /><g
     id="g35"
     transform="translate(0,15.804001)" /><g
     id="g37"
     transform="translate(0,15.804001)" /><path
     style="opacity:1;fill:#6441a5;fill-opacity:1;stroke:none;stroke-width:11.96220493;stroke-linecap:butt;stroke-linejoin:round;stroke-miterlimit:4;stroke-dasharray:none;stroke-dashoffset:0;stroke-opacity:1;paint-order:stroke markers fill"
     d="M 128,63.999999 A 63.999999,63.999997 0 0 1 63.999999,128 63.999999,63.999997 0 0 1 0,63.999999 63.999999,63.999997 0 0 1 63.999999,6.78697e-7 63.999999,63.999997 0 0 1 128,63.999999 Z"
     id="path842"
     inkscape:connector-curvature="0" /><path
     style="fill:#ffffff;fill-opacity:1;fill-rule:evenodd;stroke:none;stroke-width:1.33333325"
     d="m 34.852207,28.706286 -3.26394,13.061846 v 58.772808 h 14.69443 v 8.16535 h 8.16167 l 8.16535,-8.16535 h 13.05939 L 101.79035,74.423376 V 28.706287 Z m 6.53276,6.530308 h 53.87875 v 35.91672 l -11.43172,11.430499 h -17.95713 l -9.79547,9.794238 v -9.794238 h -14.69443 z m 17.95958,13.059397 v 19.594621 h 6.53032 V 48.295991 Z m 17.95713,0 v 19.594621 h 6.53032 V 48.295991 Z"
     id="path3367"
     inkscape:connector-curvature="0" /><g
     id="g4176"
     transform="translate(-364.08306,-153.38659)" /><g
     id="g4178"
     transform="translate(-364.08306,-153.38659)" /><g
     id="g4180"
     transform="translate(-364.08306,-153.38659)" /><g
     id="g4182"
     transform="translate(-364.08306,-153.38659)" /><g
     id="g4184"
     transform="translate(-364.08306,-153.38659)" /><g
     id="g4186"
     transform="translate(-364.08306,-153.38659)" /><g
     id="g4188"
     transform="translate(-364.08306,-153.38659)" /><g
     id="g4190"
     transform="translate(-364.08306,-153.38659)" /><g
     id="g4192"
     transform="translate(-364.08306,-153.38659)" /><g
     id="g4194"
     transform="translate(-364.08306,-153.38659)" /><g
     id="g4196"
     transform="translate(-364.08306,-153.38659)" /><g
     id="g4198"
     transform="translate(-364.08306,-153.38659)" /><g
     id="g4200"
     transform="translate(-364.08306,-153.38659)" /><g
     id="g4202"
     transform="translate(-364.08306,-153.38659)" /><g
     id="g4204"
     transform="translate(-364.08306,-153.38659)" /></svg>