<?xml version="1.0" encoding="UTF-8" standalone="no"?>
<!-- Generator: Adobe Illustrator 18.0.0, SVG Export Plug-In . SVG Version: 6.00 Build 0)  -->

<svg
   xmlns:dc="http://purl.org/dc/elements/1.1/"
   xmlns:cc="http://creativecommons.org/ns#"
   xmlns:rdf="http://www.w3.org/1999/02/22-rdf-syntax-ns#"
   xmlns:svg="http://www.w3.org/2000/svg"
   xmlns="http://www.w3.org/2000/svg"
   xmlns:sodipodi="http://sodipodi.sourceforge.net/DTD/sodipodi-0.dtd"
   xmlns:inkscape="http://www.inkscape.org/namespaces/inkscape"
   version="1.1"
   id="Capa_1"
   x="0px"
   y="0px"
   viewBox="0 0 128 128"
   xml:space="preserve"
   inkscape:version="0.92.3 (2405546, 2018-03-11)"
   sodipodi:docname="icon-discord.svg"
   width="128"
   height="128"><metadata
     id="metadata43"><rdf:RDF><cc:Work
         rdf:about=""><dc:format>image/svg+xml</dc:format><dc:type
           rdf:resource="http://purl.org/dc/dcmitype/StillImage" /><dc:title></dc:title></cc:Work></rdf:RDF></metadata><defs
     id="defs41" /><sodipodi:namedview
     pagecolor="#ffffff"
     bordercolor="#666666"
     borderopacity="1"
     objecttolerance="10"
     gridtolerance="10"
     guidetolerance="10"
     inkscape:pageopacity="0"
     inkscape:pageshadow="2"
     inkscape:window-width="1920"
     inkscape:window-height="1017"
     id="namedview39"
     showgrid="false"
     inkscape:zoom="1.4142136"
     inkscape:cx="-47.264907"
     inkscape:cy="67.42394"
     inkscape:window-x="-8"
     inkscape:window-y="-8"
     inkscape:window-maximized="1"
     inkscape:current-layer="Capa_1" /><g
     id="g9"
     transform="translate(0,15.804001)" /><g
     id="g11"
     transform="translate(0,15.804001)" /><g
     id="g13"
     transform="translate(0,15.804001)" /><g
     id="g15"
     transform="translate(0,15.804001)" /><g
     id="g17"
     transform="translate(0,15.804001)" /><g
     id="g19"
     transform="translate(0,15.804001)" /><g
     id="g21"
     transform="translate(0,15.804001)" /><g
     id="g23"
     transform="translate(0,15.804001)" /><g
     id="g25"
     transform="translate(0,15.804001)" /><g
     id="g27"
     transform="translate(0,15.804001)" /><g
     id="g29"
     transform="translate(0,15.804001)" /><g
     id="g31"
     transform="translate(0,15.804001)" /><g
     id="g33"
     transform="translate(0,15.804001)" /><g
     id="g35"
     transform="translate(0,15.804001)" /><g
     id="g37"
     transform="translate(0,15.804001)" /><path
     style="opacity:1;fill:#7289da;fill-opacity:1;stroke:none;stroke-width:11.96220493;stroke-linecap:butt;stroke-linejoin:round;stroke-miterlimit:4;stroke-dasharray:none;stroke-dashoffset:0;stroke-opacity:1;paint-order:stroke markers fill"
     d="M 128,64 A 63.999998,64 0 0 1 63.999999,128 63.999998,64 0 0 1 0,64 63.999998,64 0 0 1 63.999999,2.4330192e-7 63.999998,64 0 0 1 128,64 Z"
     id="path829"
     inkscape:connector-curvature="0" /><g
     id="g840"
     transform="matrix(0.89531295,0,0,0.89531295,-59.398276,6.987884)"
     style="stroke-width:1.11692786"><path
       style="fill:#ffffff;fill-opacity:1;stroke-width:1.11692786"
       id="path4"
       d="m 129.74042,61.45014 c -2.5466,0 -4.55707,2.233856 -4.55707,4.95916 0,2.725304 2.05515,4.95916 4.55707,4.95916 2.54659,0 4.55706,-2.233856 4.55706,-4.95916 0.0447,-2.725304 -2.01047,-4.95916 -4.55706,-4.95916 z m 16.30714,0 c -2.54659,0 -4.55706,2.233856 -4.55706,4.95916 0,2.725304 2.05515,4.95916 4.55706,4.95916 2.5466,0 4.55707,-2.233856 4.55707,-4.95916 0,-2.725304 -2.01047,-4.95916 -4.55707,-4.95916 z"
       class="st0"
       inkscape:connector-curvature="0" /><path
       style="fill:#ffffff;fill-opacity:1;stroke-width:1.11692786"
       id="path6"
       d="m 167.76064,23.966039 h -59.86733 c -5.04852,0 -9.15881,4.110295 -9.15881,9.203486 v 60.403461 c 0,5.093191 4.11029,9.203484 9.15881,9.203484 h 50.66385 l -2.36789,-8.265264 5.71867,5.316576 5.40593,5.003838 9.60558,8.48865 V 33.169525 c 0,-5.093191 -4.11029,-9.203486 -9.15881,-9.203486 z m -17.24536,58.348314 c 0,0 -1.60838,-1.921116 -2.94869,-3.618846 5.8527,-1.653054 8.08655,-5.316577 8.08655,-5.316577 -1.83176,1.206282 -3.57416,2.055147 -5.13786,2.63595 -2.23386,0.938219 -4.37836,1.563699 -6.47819,1.921116 -4.289,0.804188 -8.22058,0.580802 -11.57137,-0.04468 -2.54659,-0.491449 -4.73577,-1.206283 -6.56753,-1.921116 -1.02758,-0.402095 -2.14451,-0.893543 -3.26143,-1.519022 -0.13404,-0.08935 -0.26807,-0.134032 -0.4021,-0.223386 -0.0893,-0.04468 -0.13403,-0.08935 -0.17871,-0.134031 -0.80418,-0.446772 -1.25096,-0.759511 -1.25096,-0.759511 0,0 2.14451,3.574169 7.8185,5.271899 -1.34031,1.697731 -2.99337,3.708201 -2.99337,3.708201 -9.87364,-0.31274 -13.62652,-6.790922 -13.62652,-6.790922 0,-14.386031 6.43351,-26.046759 6.43351,-26.046759 6.4335,-4.825128 12.55427,-4.691097 12.55427,-4.691097 l 0.44677,0.536126 c -8.04188,2.32321 -11.75008,5.852702 -11.75008,5.852702 0,0 0.98289,-0.536126 2.63595,-1.295637 4.78045,-2.099824 8.578,-2.680627 10.1417,-2.814658 0.26806,-0.04468 0.49145,-0.08935 0.75951,-0.08935 2.72531,-0.357417 5.80803,-0.446771 9.02478,-0.08935 4.24433,0.491448 8.80139,1.742407 13.44781,4.289003 0,0 -3.52949,-3.350784 -11.1246,-5.673994 l 0.62548,-0.714834 c 0,0 6.12076,-0.134031 12.55427,4.691097 0,0 6.4335,11.660728 6.4335,26.046759 0,0 -3.79755,6.478182 -13.67119,6.790922 z"
       class="st0"
       inkscape:connector-curvature="0" /></g></svg>