<?xml version="1.0" encoding="UTF-8" standalone="no"?>
<!-- Generator: Adobe Illustrator 18.0.0, SVG Export Plug-In . SVG Version: 6.00 Build 0)  -->

<svg
   xmlns:dc="http://purl.org/dc/elements/1.1/"
   xmlns:cc="http://creativecommons.org/ns#"
   xmlns:rdf="http://www.w3.org/1999/02/22-rdf-syntax-ns#"
   xmlns:svg="http://www.w3.org/2000/svg"
   xmlns="http://www.w3.org/2000/svg"
   xmlns:sodipodi="http://sodipodi.sourceforge.net/DTD/sodipodi-0.dtd"
   xmlns:inkscape="http://www.inkscape.org/namespaces/inkscape"
   version="1.1"
   id="Capa_1"
   x="0px"
   y="0px"
   viewBox="0 0 128 128"
   xml:space="preserve"
   inkscape:version="0.92.3 (2405546, 2018-03-11)"
   sodipodi:docname="icon-twitter.svg"
   width="128"
   height="128"><metadata
     id="metadata43"><rdf:RDF><cc:Work
         rdf:about=""><dc:format>image/svg+xml</dc:format><dc:type
           rdf:resource="http://purl.org/dc/dcmitype/StillImage" /><dc:title></dc:title></cc:Work></rdf:RDF></metadata><defs
     id="defs41" /><sodipodi:namedview
     pagecolor="#ffffff"
     bordercolor="#666666"
     borderopacity="1"
     objecttolerance="10"
     gridtolerance="10"
     guidetolerance="10"
     inkscape:pageopacity="0"
     inkscape:pageshadow="2"
     inkscape:window-width="1920"
     inkscape:window-height="1017"
     id="namedview39"
     showgrid="false"
     inkscape:zoom="2.9747442"
     inkscape:cx="116.27801"
     inkscape:cy="50.430215"
     inkscape:window-x="-8"
     inkscape:window-y="-8"
     inkscape:window-maximized="1"
     inkscape:current-layer="Capa_1" /><g
     id="g9"
     transform="translate(0,15.804001)" /><g
     id="g11"
     transform="translate(0,15.804001)" /><g
     id="g13"
     transform="translate(0,15.804001)" /><g
     id="g15"
     transform="translate(0,15.804001)" /><g
     id="g17"
     transform="translate(0,15.804001)" /><g
     id="g19"
     transform="translate(0,15.804001)" /><g
     id="g21"
     transform="translate(0,15.804001)" /><g
     id="g23"
     transform="translate(0,15.804001)" /><g
     id="g25"
     transform="translate(0,15.804001)" /><g
     id="g27"
     transform="translate(0,15.804001)" /><g
     id="g29"
     transform="translate(0,15.804001)" /><g
     id="g31"
     transform="translate(0,15.804001)" /><g
     id="g33"
     transform="translate(0,15.804001)" /><g
     id="g35"
     transform="translate(0,15.804001)" /><g
     id="g37"
     transform="translate(0,15.804001)" /><path
     style="opacity:1;fill:#1da1f2;fill-opacity:1;stroke:none;stroke-width:11.96220493;stroke-linecap:butt;stroke-linejoin:round;stroke-miterlimit:4;stroke-dasharray:none;stroke-dashoffset:0;stroke-opacity:1;paint-order:stroke markers fill"
     d="M 128,63.999999 A 63.999999,63.999997 0 0 1 63.999999,128 63.999999,63.999997 0 0 1 0,63.999999 63.999999,63.999997 0 0 1 63.999999,6.78697e-7 63.999999,63.999997 0 0 1 128,63.999999 Z"
     id="path842"
     inkscape:connector-curvature="0" /><path
     inkscape:connector-curvature="0"
     style="fill:#ffffff;fill-opacity:1"
     d="m 102.72761,38.468564 c -1.77747,0.78819 -3.622629,1.410004 -5.515959,1.860174 2.08623,-1.982471 3.654809,-4.462119 4.539749,-7.229854 l 0,0 c 0.25258,-0.79014 -0.60563,-1.473395 -1.31911,-1.050335 l 0,0 c -2.633939,1.562337 -5.471109,2.734383 -8.432919,3.483952 -0.17183,0.0435 -0.34913,0.06554 -0.52702,0.06554 -0.5395,0 -1.06399,-0.200313 -1.47651,-0.563884 -3.1512,-2.777292 -7.20411,-4.306861 -11.41189,-4.306861 -1.82077,0 -3.6591,0.283795 -5.46408,0.843584 -5.59242,1.734564 -9.90747,6.347651 -11.2613,12.039159 -0.50791,2.134803 -0.64542,4.271557 -0.40902,6.350772 0.0271,0.238934 -0.0858,0.4057 -0.15545,0.483914 -0.1223,0.137119 -0.2957,0.215724 -0.47573,0.215724 -0.0201,0 -0.0408,-9.76e-4 -0.0612,-0.0029 -12.24162,-1.137326 -23.28057,-7.035001 -31.08348,-16.606409 l 0,0 c -0.3979,-0.488206 -1.16093,-0.428326 -1.47807,0.115663 l 0,0 c -1.52801,2.621449 -2.33551,5.619731 -2.33551,8.670676 0,4.675697 1.87851,9.082032 5.14147,12.294283 -1.37217,-0.32534 -2.70025,-0.837733 -3.93393,-1.522937 l 0,0 c -0.59685,-0.331582 -1.3312,0.0946 -1.33959,0.777268 l 0,0 c -0.0854,6.946059 3.98132,13.126748 10.07346,15.909892 -0.12268,0.0029 -0.24537,0.0043 -0.36825,0.0043 -0.96568,0 -1.94346,-0.09323 -2.90583,-0.277163 l 0,0 c -0.67213,-0.128343 -1.2368,0.50927 -1.0281,1.160927 l 0,0 c 1.9774,6.173473 7.29286,10.723949 13.65377,11.757119 -5.27918,3.543836 -11.4269,5.413175 -17.82546,5.413175 l -1.99476,-0.001 c -0.6146,0 -1.1344,0.40063 -1.29102,0.99591 -0.15429,0.58632 0.1299,1.20482 0.65399,1.50968 7.21016,4.19607 15.43437,6.41377 23.78712,6.41377 7.31138,0 14.15055,-1.45096 20.32773,-4.31232 5.66284,-2.62321 10.66699,-6.37301 14.87341,-11.145254 3.91852,-4.445541 6.98272,-9.577455 9.10719,-15.252969 2.02519,-5.410055 3.09561,-11.182703 3.09561,-16.693987 l 0,-0.262535 c -1.9e-4,-0.884934 0.40004,-1.717595 1.09832,-2.284406 2.64973,-2.151381 4.957149,-4.683889 6.857889,-7.527107 l 0,0 c 0.50186,-0.75074 -0.28964,-1.691654 -1.11548,-1.325353 l 0,0 z"
     id="path4174" /><g
     id="g4176"
     transform="translate(-364.08306,-153.38659)" /><g
     id="g4178"
     transform="translate(-364.08306,-153.38659)" /><g
     id="g4180"
     transform="translate(-364.08306,-153.38659)" /><g
     id="g4182"
     transform="translate(-364.08306,-153.38659)" /><g
     id="g4184"
     transform="translate(-364.08306,-153.38659)" /><g
     id="g4186"
     transform="translate(-364.08306,-153.38659)" /><g
     id="g4188"
     transform="translate(-364.08306,-153.38659)" /><g
     id="g4190"
     transform="translate(-364.08306,-153.38659)" /><g
     id="g4192"
     transform="translate(-364.08306,-153.38659)" /><g
     id="g4194"
     transform="translate(-364.08306,-153.38659)" /><g
     id="g4196"
     transform="translate(-364.08306,-153.38659)" /><g
     id="g4198"
     transform="translate(-364.08306,-153.38659)" /><g
     id="g4200"
     transform="translate(-364.08306,-153.38659)" /><g
     id="g4202"
     transform="translate(-364.08306,-153.38659)" /><g
     id="g4204"
     transform="translate(-364.08306,-153.38659)" /></svg>